<svg xmlns="http://www.w3.org/2000/svg" width="38" height="38" viewBox="0 0 38 38">
  <g id="cal_s" data-name="cal s" transform="translate(-48 -539)">
    <rect id="Rectangle_8" data-name="Rectangle 8" width="38" height="38" rx="8" transform="translate(48 539)" fill="#fff"/>
    <path id="Path_6" data-name="Path 6" d="M7.275,0V-17.25H1.55v1.775H4.925V0ZM24.45,0V-2h-8.8l4.425-4.225c1.075-1,3.65-3.15,3.65-6.2S21.4-17.5,17.95-17.5a6.148,6.148,0,0,0-5.65,3.325l1.275,1.425A5.108,5.108,0,0,1,17.8-15.525a3.258,3.258,0,0,1,3.55,3.35c0,1.925-1.475,3.5-2.8,4.775l-6.1,5.775L12.8,0Z" transform="translate(54 566)" fill="#00544b"/>
  </g>
</svg>
